<?xml version="1.0" encoding="UTF-8"?>
<svg xmlns="http://www.w3.org/2000/svg" xmlns:xlink="http://www.w3.org/1999/xlink" width="187pt" height="69pt" viewBox="0 0 187 69" version="1.1">
<g id="surface1">
<path style=" stroke:none;fill-rule:nonzero;fill:rgb(100%,100%,100%);fill-opacity:1;" d="M 109.179688 40.273438 C 108.371094 44.289062 105.265625 44.492188 104.652344 44.492188 C 102.898438 44.492188 101.855469 43.480469 101.855469 41.789062 C 101.855469 41.402344 101.910156 40.878906 102.011719 40.351562 L 103.929688 30.789062 L 103.9375 30.753906 L 101.671875 30.753906 L 99.714844 40.558594 L 99.6875 40.699219 C 99.605469 41.140625 99.527344 41.558594 99.527344 42.105469 C 99.527344 44.738281 101.257812 46.507812 103.835938 46.507812 C 105.722656 46.507812 107.234375 45.886719 108.34375 44.664062 L 108.046875 46.28125 L 108.039062 46.320312 L 110.277344 46.320312 L 113.363281 30.789062 L 113.371094 30.753906 L 111.070312 30.753906 L 109.179688 40.273438 "/>
<path style=" stroke:none;fill-rule:nonzero;fill:rgb(100%,100%,100%);fill-opacity:1;" d="M 124.636719 30.5625 C 122.882812 30.5625 121.332031 31.28125 120.355469 32.535156 L 120.703125 30.789062 L 120.710938 30.753906 L 118.476562 30.753906 L 115.386719 46.28125 L 115.378906 46.320312 L 117.648438 46.320312 L 119.539062 36.792969 C 120.023438 34.351562 121.898438 32.578125 124.003906 32.578125 C 124.910156 32.578125 125.621094 32.933594 126.179688 33.664062 L 126.203125 33.691406 L 128.042969 32.042969 L 128.023438 32.019531 C 127.175781 31.039062 126.0625 30.5625 124.636719 30.5625 "/>
<path style=" stroke:none;fill-rule:nonzero;fill:rgb(100%,100%,100%);fill-opacity:1;" d="M 87.148438 32.726562 L 87.144531 32.765625 L 94.878906 32.765625 L 84.578125 44.410156 L 84.574219 44.414062 L 84.183594 46.320312 L 95.164062 46.320312 L 95.554688 44.304688 L 87.347656 44.304688 L 97.679688 32.660156 L 97.683594 32.652344 L 98.070312 30.753906 L 87.535156 30.753906 L 87.148438 32.726562 "/>
<path style=" stroke:none;fill-rule:nonzero;fill:rgb(100%,100%,100%);fill-opacity:1;" d="M 128.332031 46.28125 L 128.324219 46.320312 L 130.589844 46.320312 L 133.683594 30.753906 L 131.453125 30.753906 L 128.332031 46.28125 "/>
<path style=" stroke:none;fill-rule:nonzero;fill:rgb(100%,100%,100%);fill-opacity:1;" d="M 159.070312 30.566406 C 157.207031 30.566406 155.75 31.136719 154.632812 32.3125 L 156.390625 23.644531 L 154.121094 23.644531 L 149.566406 46.320312 L 151.835938 46.320312 L 153.726562 36.796875 C 154.535156 32.78125 157.667969 32.578125 158.285156 32.578125 C 160.019531 32.578125 161.054688 33.589844 161.054688 35.28125 C 161.054688 35.664062 160.996094 36.191406 160.894531 36.722656 L 158.972656 46.320312 L 161.238281 46.320312 L 163.226562 36.511719 C 163.320312 35.992188 163.386719 35.550781 163.386719 34.964844 C 163.386719 32.332031 161.648438 30.566406 159.070312 30.566406 "/>
<path style=" stroke:none;fill-rule:nonzero;fill:rgb(100%,100%,100%);fill-opacity:1;" d="M 144.039062 30.5625 C 139.929688 30.5625 137.039062 33.460938 136.117188 38.511719 C 135.953125 39.359375 135.894531 40.304688 135.894531 40.910156 C 135.894531 44.363281 137.988281 46.507812 141.367188 46.507812 C 143.328125 46.507812 145.121094 45.753906 146.546875 44.328125 L 146.566406 44.308594 L 145.261719 42.714844 L 145.234375 42.683594 L 145.210938 42.710938 C 144.007812 43.976562 142.929688 44.492188 141.492188 44.492188 C 139.882812 44.492188 138.160156 43.535156 138.160156 40.847656 C 138.160156 40.003906 138.261719 39.308594 138.410156 38.523438 C 138.652344 37.203125 139.199219 35.359375 140.414062 34.078125 C 141.382812 33.082031 142.527344 32.578125 143.820312 32.578125 C 145.171875 32.578125 146.019531 33.058594 146.84375 34.292969 L 146.863281 34.324219 L 148.527344 32.917969 L 148.550781 32.898438 L 148.53125 32.871094 C 147.394531 31.273438 146.011719 30.5625 144.039062 30.5625 "/>
<path style=" stroke:none;fill-rule:nonzero;fill:rgb(100%,100%,100%);fill-opacity:1;" d="M 132.296875 26.480469 L 134.566406 26.480469 L 135.132812 23.644531 L 132.867188 23.644531 L 132.296875 26.480469 "/>
<path style=" stroke:none;fill-rule:nonzero;fill:rgb(100%,100%,100%);fill-opacity:1;" d="M 110.25 26.480469 L 112.523438 26.480469 L 113.085938 23.644531 L 110.824219 23.644531 L 110.25 26.480469 "/>
<path style=" stroke:none;fill-rule:nonzero;fill:rgb(100%,100%,100%);fill-opacity:1;" d="M 104.203125 26.480469 L 106.476562 26.480469 L 107.039062 23.644531 L 104.777344 23.644531 L 104.203125 26.480469 "/>
<path style=" stroke:none;fill-rule:nonzero;fill:rgb(100%,100%,100%);fill-opacity:1;" d="M 73.910156 32.433594 L 68.808594 32.433594 L 70.601562 23.644531 L 27.234375 23.644531 L 22.679688 46.320312 L 39.972656 46.320312 L 41.101562 40.652344 L 30.894531 40.652344 L 31.515625 37.535156 L 41.71875 37.535156 L 42.746094 32.433594 L 32.539062 32.433594 L 33.15625 29.3125 L 49.335938 29.3125 L 45.921875 46.320312 L 53.007812 46.320312 L 56.421875 29.3125 L 62.375 29.3125 L 58.957031 46.320312 L 66.046875 46.320312 L 67.792969 37.535156 L 72.894531 37.535156 L 71.148438 46.320312 L 78.234375 46.320312 L 82.789062 23.644531 L 75.703125 23.644531 L 73.910156 32.433594 "/>
</g>
</svg>
